{
  "accessors": [
    {
      "bufferView": 1,
      "componentType": 5126,
      "count": 1536,
      "max": [
        0.8025394082069397,
        0.7917413711547852,
        3.9028584957122803
      ],
      "min": [
        -0.7784950733184814,
        -0.7638704776763916,
        -0.3684670925140381
      ],
      "type": "VEC3"
    },
    {
      "bufferView": 1,
      "byteOffset": 18432,
      "componentType": 5126,
      "count": 1536,
      "max": [
        0.9831704497337341,
        0.9853401184082031,
        0.9941546320915222
      ],
      "min": [
        -0.9884496331214905,
        -0.9926055073738098,
        -0.8849119544029236
      ],
      "type": "VEC3"
    },
    {
      "bufferView": 0,
      "componentType": 5125,
      "count": 2304,
      "type": "SCALAR"
    },
    {
      "bufferView": 1,
      "byteOffset": 36864,
      "componentType": 5126,
      "count": 192,
      "max": [
        0.40519019961357117,
        0.2648794949054718,
        3.510232448577881
      ],
      "min": [
        -0.16466453671455383,
        -0.25050362944602966,
        -1.002165675163269
      ],
      "type": "VEC3"
    },
    {
      "bufferView": 1,
      "byteOffset": 39168,
      "componentType": 5126,
      "count": 192,
      "max": [
        0.9217339158058167,
        0.9235004782676697,
        0.3643377423286438
      ],
      "min": [
        -0.9244248270988464,
        -0.9234022498130798,
        -0.2576621174812317
      ],
      "type": "VEC3"
    },
    {
      "bufferView": 0,
      "byteOffset": 9216,
      "componentType": 5125,
      "count": 288,
      "type": "SCALAR"
    }
  ],
  "asset": {
    "extras": {
      "author": "Vaidar (https://sketchfab.com/Vaidar)",
      "license": "CC-BY-4.0 (http://creativecommons.org/licenses/by/4.0/)",
      "source": "https://sketchfab.com/3d-models/lowpoly-tree-75fba1cab5ec4f2796579e784e4e6fb3",
      "title": "Lowpoly tree"
    },
    "generator": "Sketchfab-12.67.0",
    "version": "2.0"
  },
  "bufferViews": [
    {
      "buffer": 0,
      "byteLength": 10368,
      "name": "floatBufferViews",
      "target": 34963
    },
    {
      "buffer": 0,
      "byteLength": 41472,
      "byteOffset": 10368,
      "byteStride": 12,
      "name": "floatBufferViews",
      "target": 34962
    }
  ],
  "buffers": [
    {
      "byteLength": 51840,
      "uri": "scene.bin"
    }
  ],
  "materials": [
    {
      "doubleSided": true,
      "name": "Material.005",
      "pbrMetallicRoughness": {
        "baseColorFactor": [
          0.012161479651957123,
          0.20594136762876553,
          0.047029559083452493,
          1.0
        ],
        "roughnessFactor": 0.9577051495
      }
    },
    {
      "doubleSided": true,
      "name": "Material.006",
      "pbrMetallicRoughness": {
        "baseColorFactor": [
          0.0953074666,
          0.0423114106,
          0.010960094,
          1.0
        ],
        "metallicFactor": 0.0,
        "roughnessFactor": 0.9577051495
      }
    }
  ],
  "meshes": [
    {
      "name": "Circle.017_Material.005_0",
      "primitives": [
        {
          "attributes": {
            "NORMAL": 1,
            "POSITION": 0
          },
          "indices": 2,
          "material": 0,
          "mode": 4
        }
      ]
    },
    {
      "name": "Circle.017_Material.006_0",
      "primitives": [
        {
          "attributes": {
            "NORMAL": 4,
            "POSITION": 3
          },
          "indices": 5,
          "material": 1,
          "mode": 4
        }
      ]
    }
  ],
  "nodes": [
    {
      "children": [
        1
      ],
      "matrix": [
        0.010944802314043045,
        0.0,
        0.0,
        0.0,
        0.0,
        2.4302343058042564e-18,
        -0.010944802314043045,
        0.0,
        0.0,
        0.010944802314043045,
        2.4302343058042564e-18,
        0.0,
        0.0,
        0.0,
        0.0,
        1.0
      ],
      "name": "Sketchfab_model"
    },
    {
      "children": [
        2
      ],
      "matrix": [
        1.0,
        0.0,
        0.0,
        0.0,
        0.0,
        0.0,
        1.0,
        0.0,
        0.0,
        -1.0,
        0.0,
        0.0,
        0.0,
        0.0,
        0.0,
        1.0
      ],
      "name": "2ba65ba99051431d9717d1b0aea90007.fbx"
    },
    {
      "children": [
        3
      ],
      "name": "RootNode"
    },
    {
      "children": [
        4,
        5
      ],
      "matrix": [
        89.06246185302734,
        0.0,
        0.0,
        0.0,
        0.0,
        -1.4510116793404283e-05,
        -89.06246185302616,
        0.0,
        0.0,
        74.2059020996084,
        -1.2089675984952089e-05,
        0.0,
        0.0,
        0.0,
        0.0,
        1.0
      ],
      "name": "Circle.017"
    },
    {
      "mesh": 0,
      "name": "Circle.017_Material.005_0"
    },
    {
      "mesh": 1,
      "name": "Circle.017_Material.006_0"
    }
  ],
  "scene": 0,
  "scenes": [
    {
      "name": "Sketchfab_Scene",
      "nodes": [
        0
      ]
    }
  ]
}
